<?xml version="1.0" encoding="UTF-8" standalone="no"?>
<svg
   height="30"
   viewBox="0 0 30 30"
   width="30"
   version="1.1"
   id="svg4"
   sodipodi:docname="logo.svg"
   inkscape:version="1.2.1 (9c6d41e410, 2022-07-14)"
   xml:space="preserve"
   xmlns:inkscape="http://www.inkscape.org/namespaces/inkscape"
   xmlns:sodipodi="http://sodipodi.sourceforge.net/DTD/sodipodi-0.dtd"
   xmlns="http://www.w3.org/2000/svg"
   xmlns:svg="http://www.w3.org/2000/svg"
   xmlns:rdf="http://www.w3.org/1999/02/22-rdf-syntax-ns#"
   xmlns:cc="http://creativecommons.org/ns#"
   xmlns:dc="http://purl.org/dc/elements/1.1/"><metadata
     id="metadata10"><rdf:RDF><cc:Work
         rdf:about=""><dc:format>image/svg+xml</dc:format><dc:type
           rdf:resource="http://purl.org/dc/dcmitype/StillImage" /></cc:Work></rdf:RDF></metadata><defs
     id="defs8" /><sodipodi:namedview
     pagecolor="#ffffff"
     bordercolor="#666666"
     borderopacity="1"
     objecttolerance="10"
     gridtolerance="10"
     guidetolerance="10"
     inkscape:pageopacity="0"
     inkscape:pageshadow="2"
     inkscape:window-width="2498"
     inkscape:window-height="1417"
     id="namedview6"
     showgrid="true"
     inkscape:zoom="20.85965"
     inkscape:cx="10.163162"
     inkscape:cy="14.861227"
     inkscape:window-x="54"
     inkscape:window-y="-8"
     inkscape:window-maximized="1"
     inkscape:current-layer="svg4"
     inkscape:snap-grids="true"
     inkscape:snap-bbox="true"
     inkscape:snap-center="true"
     inkscape:snap-others="true"
     inkscape:showpageshadow="2"
     inkscape:pagecheckerboard="0"
     inkscape:deskcolor="#d1d1d1"><inkscape:grid
       type="xygrid"
       id="grid4520"
       originx="0"
       originy="0" /></sodipodi:namedview><path
     style="opacity:1;fill:#68b6ff;fill-opacity:1;stroke:none;stroke-width:1;stroke-linecap:round;stroke-linejoin:round;stroke-miterlimit:4;stroke-dasharray:none;stroke-dashoffset:0;stroke-opacity:1"
     d="M 2,2 V 14 H 14 V 2 Z m 2,2 h 8 v 8 H 4 Z"
     id="rect829" /><rect
     style="fill:none;stroke:none;stroke-width:0.854173;stroke-linecap:square"
     id="rect1635"
     width="28"
     height="28"
     x="1"
     y="1" /><path
     id="path1795"
     style="fill:#68b6ff;fill-opacity:1;stroke:none;stroke-width:0.854173;stroke-linecap:square"
     d="m 8,16 a 6,6 0 0 0 -6,6 6,6 0 0 0 6,6 6,6 0 0 0 6,-6 6,6 0 0 0 -6,-6 z m 0,2 a 4,4 0 0 1 4,4 4,4 0 0 1 -4,4 4,4 0 0 1 -4,-4 4,4 0 0 1 4,-4 z" /><path
     id="path1852"
     style="fill:#68b6ff;fill-opacity:1;stroke:none;stroke-width:0.854173;stroke-linecap:square"
     d="m 22,16 a 6,6 0 0 0 -6,6 6,6 0 0 0 6,6 6,6 0 0 0 6,-6 h -2 a 4,4 0 0 1 -4,4 4,4 0 0 1 -4,-4 4,4 0 0 1 4,-4 z" /></svg>
